<?xml version="1.0" standalone="no"?><!DOCTYPE svg PUBLIC "-//W3C//DTD SVG 1.1//EN" "http://www.w3.org/Graphics/SVG/1.1/DTD/svg11.dtd"><svg t="1627462906252" class="icon" viewBox="0 0 1024 1024" version="1.1" xmlns="http://www.w3.org/2000/svg" p-id="39443" xmlns:xlink="http://www.w3.org/1999/xlink" width="700" height="700"><defs><style type="text/css">@font-face { font-family: "feedback-iconfont"; src: url("//at.alicdn.com/t/font_1031158_1uhr8ri0pk5.eot?#iefix") format("embedded-opentype"), url("//at.alicdn.com/t/font_1031158_1uhr8ri0pk5.woff2") format("woff2"), url("//at.alicdn.com/t/font_1031158_1uhr8ri0pk5.woff") format("woff"), url("//at.alicdn.com/t/font_1031158_1uhr8ri0pk5.ttf") format("truetype"), url("//at.alicdn.com/t/font_1031158_1uhr8ri0pk5.svg#iconfont") format("svg"); }
</style></defs><path d="M136.270769 630.413785h-13.201723v-13.296247a6.4512 6.4512 0 0 0-6.537846-6.4512 6.561477 6.561477 0 0 0-6.545723 6.4512v13.296247h-13.2096a6.459077 6.459077 0 0 0-6.411815 6.57723 6.5536 6.5536 0 0 0 6.411815 6.585108h13.2096v13.288369a6.506338 6.506338 0 0 0 1.937723 4.608 6.396062 6.396062 0 0 0 4.608 1.8432 6.561477 6.561477 0 0 0 6.537846-6.4512V643.544615H136.270769a6.466954 6.466954 0 0 0 6.411816-6.57723 6.561477 6.561477 0 0 0-6.411816-6.5536z" fill="#666666" p-id="39444"></path><path d="M64.212677 439.548062h-0.007877 0.007877z" p-id="39445"></path><path d="M103.447631 400.061046A39.203446 39.203446 0 1 0 64.212677 439.532308a39.384615 39.384615 0 0 0 39.234954-39.471262z m-53.137723-13.942154a19.566277 19.566277 0 0 1 30.893292 4.07237 19.841969 19.841969 0 0 1 0 19.739569 19.692308 19.692308 0 1 1-30.893292-23.811939zM172.126523 258.426092a9.987938 9.987938 0 0 0 2.843569 7.049846 9.775262 9.775262 0 0 0 16.777846-7.049846v-19.605661h19.487508a9.877662 9.877662 0 1 0 0-19.747446h-19.487508v-19.613539a9.814646 9.814646 0 1 0-19.621415 0v19.613539h-19.487508a9.877662 9.877662 0 1 0 0 19.747446h19.487508zM129.654154 768.622277H51.081846a13.170215 13.170215 0 0 0-13.044184 13.170215 13.067815 13.067815 0 0 0 13.036307 13.154462h78.580185a13.162338 13.162338 0 0 0 0-26.324677zM875.275815 281.6a39.487015 39.487015 0 1 0 39.234954 39.487015 39.384615 39.384615 0 0 0-39.234954-39.487015z m16.990523 49.364677a19.747446 19.747446 0 1 1 0-19.755323 19.873477 19.873477 0 0 1 0 19.755323zM325.8368 400.061046h143.895631a13.162338 13.162338 0 0 0 0-26.324677H325.828923A13.185969 13.185969 0 0 0 316.581415 396.209231a12.973292 12.973292 0 0 0 9.255385 3.851815zM999.668185 577.756554h-13.2096V564.460308a6.4512 6.4512 0 0 0-6.537847-6.443323 6.561477 6.561477 0 0 0-6.545723 6.4512v13.288369H960.196923a6.403938 6.403938 0 0 0-4.568615 1.953477 6.624492 6.624492 0 0 0 4.568615 11.208861h13.2096v13.296246a6.459077 6.459077 0 0 0 6.545723 6.4512 6.561477 6.561477 0 0 0 6.537846-6.4512v-13.296246h13.2096a6.459077 6.459077 0 0 0 6.411816-6.57723 6.5536 6.5536 0 0 0-6.443323-6.585108z" fill="#666666" p-id="39446"></path><path d="M809.850092 702.810585h-72.365292a52.617846 52.617846 0 0 0 6.971077-26.261662V294.691446a52.775385 52.775385 0 0 0-15.344246-37.226338 52.105846 52.105846 0 0 0-37.021539-15.36H378.218338a52.1216 52.1216 0 0 0-37.021538 15.367877 52.775385 52.775385 0 0 0-15.36 37.218461v13.233231h-39.187692a52.137354 52.137354 0 0 0-37.021539 15.367877 52.775385 52.775385 0 0 0-15.36 37.210584v381.857477a52.696615 52.696615 0 0 0 6.9632 26.261662h-59.328984a13.193846 13.193846 0 0 0-9.231754 22.464985 12.989046 12.989046 0 0 0 9.239631 3.859692H511.212308l31.854277 32.066954a25.993846 25.993846 0 0 0 37.021538 0 26.364062 26.364062 0 0 0 4.009354-32.0512h68.820677a13.162338 13.162338 0 0 0 0-26.324677H645.907692a52.602092 52.602092 0 0 0 6.971077-26.261662v-13.233231h156.987077a13.162338 13.162338 0 0 0 0-26.3168z m-183.138461 39.384615a26.159262 26.159262 0 0 1-26.048985 26.387692h-41.605908l-43.732676-44.000492a25.993846 25.993846 0 0 0-25.284924-6.837169l-12.366769-12.445539a92.530215 92.530215 0 0 0-13.280492-124.95163 91.151754 91.151754 0 0 0-124.817723 4.608 92.601108 92.601108 0 0 0-4.332308 125.376984 91.214769 91.214769 0 0 0 123.935508 13.587692l12.351015 12.437662a26.356185 26.356185 0 0 0 6.805662 25.442462l6.719015 6.78203H286.467938c-14.265108 0-26.041108-11.815385-26.041107-26.387692V359.888738a25.442462 25.442462 0 0 1 25.253415-25.639384h315.785846a25.403077 25.403077 0 0 1 25.206154 25.639384zM450.56 696.698092a65.142154 65.142154 0 0 1-92.514462 0 66.166154 66.166154 0 0 1 0-93.097354 65.283938 65.283938 0 0 1 109.489231 29.506954A66.111015 66.111015 0 0 1 450.56 696.698092z m267.697231-20.220061a26.253785 26.253785 0 0 1-26.041108 26.332554h-39.384615V360.511015a52.775385 52.775385 0 0 0-15.344246-37.226338 52.105846 52.105846 0 0 0-37.021539-15.36H351.996062V294.754462a26.253785 26.253785 0 0 1 26.041107-26.3168h314.202585a26.151385 26.151385 0 0 1 26.041108 26.3168z" fill="#666666" p-id="39447"></path><path d="M535.236923 439.532308h-209.526154a13.083569 13.083569 0 0 0-12.989046 13.170215 13.059938 13.059938 0 0 0 12.989046 13.162339h209.526154a13.170215 13.170215 0 0 0 0-26.332554zM417.429662 505.367631H325.813169a13.193846 13.193846 0 0 0-9.247507 22.472861 12.910277 12.910277 0 0 0 9.247507 3.851816H417.476923a13.162338 13.162338 0 0 0 0-26.3168z" fill="#666666" p-id="39448"></path></svg>