<?xml version="1.0" standalone="no"?><!DOCTYPE svg PUBLIC "-//W3C//DTD SVG 1.1//EN" "http://www.w3.org/Graphics/SVG/1.1/DTD/svg11.dtd"><svg t="1626330749460" class="icon" viewBox="0 0 1024 1024" version="1.1" xmlns="http://www.w3.org/2000/svg" p-id="34476" xmlns:xlink="http://www.w3.org/1999/xlink" width="200" height="200"><defs><style type="text/css"></style></defs><path d="M638.464 544.896c13.696 0 26.88 1.408 39.936 3.584l75.264-93.44a52.672 52.672 0 0 0 6.784-56.704 54.8096 54.8096 0 0 0-49.024-31.744h-80.768L807.168 106.112c7.04-9.088 11.008-20.224 11.392-31.744h-0.512a54.72 54.72 0 0 0-51.328-54.4H407.936A50.3296 50.3296 0 0 0 358.4 56.192L180.48 545.792c-6.656 16.64-4.096 35.712 6.784 49.92a53.4912 53.4912 0 0 0 42.24 22.656h104.832l-108.928 328.576a51.712 51.712 0 0 0 24.448 63.488c8.192 4.736 17.408 7.296 26.752 7.68 16 0.64 31.104-7.04 39.936-20.48l102.4-127.232c-11.136-27.52-17.408-57.472-17.408-88.832 0.128-130.56 106.112-236.672 236.928-236.672z" p-id="34477" fill="#ffffff"></path><path d="M637.824 584.832c-108.928 0-197.504 88.576-197.504 197.504s88.576 197.504 197.504 197.504 197.504-88.576 197.504-197.504-88.576-197.504-197.504-197.504zM491.52 782.336c0-80.64 65.664-146.304 146.304-146.304 33.024 0 63.488 11.136 87.936 29.696L521.216 870.4c-18.56-24.576-29.696-55.04-29.696-88.064z m146.304 146.304c-29.184 0-56.32-8.704-79.104-23.424l201.984-201.984c14.72 22.784 23.424 49.92 23.424 79.104 0 80.768-65.664 146.304-146.304 146.304z" p-id="34478" fill="#ffffff"></path></svg>