<?xml version="1.0" standalone="no"?><!DOCTYPE svg PUBLIC "-//W3C//DTD SVG 1.1//EN" "http://www.w3.org/Graphics/SVG/1.1/DTD/svg11.dtd"><svg t="1626330196994" class="icon" viewBox="0 0 1024 1024" version="1.1" xmlns="http://www.w3.org/2000/svg" p-id="23882" xmlns:xlink="http://www.w3.org/1999/xlink" width="200" height="200"><defs><style type="text/css"></style></defs><path d="M835.674663 55.861806C835.488483 26.35221 812.844289 1.962574 783.776871 0.00768H420.56214A51.059981 51.059981 0 0 0 370.502879 37.243764L190.489684 539.465452a52.712332 52.712332 0 0 0 6.888676 51.199616 53.992322 53.992322 0 0 0 42.705134 23.24928h106.076295L235.987525 950.900912a53.363963 53.363963 0 0 0 24.785268 65.163148 58.646833 58.646833 0 0 0 27.089252 7.889395 45.730566 45.730566 0 0 0 40.424424-20.945298l442.178502-556.656188c13.40499-16.314059 16.104606-39.097889 6.911948-58.181382a55.528311 55.528311 0 0 0-49.59381-32.581574h-81.733205L824.643473 88.44338a56.785029 56.785029 0 0 0 11.473369-32.581574h-0.465451z" fill="#FFFFFF" p-id="23883"></path></svg>