<?xml version="1.0" standalone="no"?><!DOCTYPE svg PUBLIC "-//W3C//DTD SVG 1.1//EN" "http://www.w3.org/Graphics/SVG/1.1/DTD/svg11.dtd"><svg t="1651309256036" class="icon" viewBox="0 0 1609 1024" version="1.1" xmlns="http://www.w3.org/2000/svg" p-id="2083" xmlns:xlink="http://www.w3.org/1999/xlink" width="314.2578125" height="200"><defs><style type="text/css">@font-face { font-family: "feedback-iconfont"; src: url("//at.alicdn.com/t/font_1031158_u69w8yhxdu.woff2?t=1630033759944") format("woff2"), url("//at.alicdn.com/t/font_1031158_u69w8yhxdu.woff?t=1630033759944") format("woff"), url("//at.alicdn.com/t/font_1031158_u69w8yhxdu.ttf?t=1630033759944") format("truetype"); }
</style></defs><path d="M392.533333 522.435048L43.983238 147.260952A73.142857 73.142857 0 1 1 151.161905 47.786667l394.873905 424.911238a73.142857 73.142857 0 0 1 0 99.571809L151.161905 997.13219A73.142857 73.142857 0 1 1 43.885714 897.511619l348.647619-375.076571z" fill="#63B8CE" p-id="2084"></path><path d="M531.553524 147.309714A73.142857 73.142857 0 1 1 638.780952 47.786667l394.873905 424.911238a73.142857 73.142857 0 0 1 0 99.571809L638.780952 997.13219a73.142857 73.142857 0 1 1-107.178666-99.620571l348.647619-375.076571L531.504762 147.260952z" fill="#63B8CE" p-id="2085"></path><path d="M1067.934476 147.309714A73.142857 73.142857 0 0 1 1175.161905 47.786667l394.873905 424.911238a73.142857 73.142857 0 0 1 0 99.571809L1175.161905 997.13219a73.142857 73.142857 0 1 1-107.178667-99.620571l348.647619-375.076571L1067.885714 147.260952z" fill="#63B8CE" p-id="2086"></path></svg>
