<?xml version="1.0" standalone="no"?><!DOCTYPE svg PUBLIC "-//W3C//DTD SVG 1.1//EN" "http://www.w3.org/Graphics/SVG/1.1/DTD/svg11.dtd"><svg t="1651305389698" class="icon" viewBox="0 0 1499 1024" version="1.1" xmlns="http://www.w3.org/2000/svg" p-id="37553" xmlns:xlink="http://www.w3.org/1999/xlink" width="292.7734375" height="200"><defs><style type="text/css">@font-face { font-family: "feedback-iconfont"; src: url("//at.alicdn.com/t/font_1031158_u69w8yhxdu.woff2?t=1630033759944") format("woff2"), url("//at.alicdn.com/t/font_1031158_u69w8yhxdu.woff?t=1630033759944") format("woff"), url("//at.alicdn.com/t/font_1031158_u69w8yhxdu.ttf?t=1630033759944") format("truetype"); }
</style></defs><path d="M780.2446611 988.72816717L1086.8901227 682.08270558c12.41479582-12.41479582 12.41479582-32.27846953 0-47.17622532-12.41479582-12.41479582-36.00290814-12.41479582-47.17622466-1e-8L756.65654876 916.72235021 474.84067951 634.90648026c-12.41479582-12.41479582-32.27846953-12.41479582-47.17622533 0-12.41479582 12.41479582-12.41479582 32.27846953 0 47.17622532l305.40398228 305.4039816c7.4488779 7.4488779 16.1392351 12.41479582 23.58811231 7.44887789 7.44887791 4.9659186 19.86367371 1.24147931 23.58811233-6.2073979z" fill="#409FFF" p-id="37554"></path><path d="M756.65654876 690.77306279c7.44887791 0 19.86367371-3.7244386 23.58811235-7.4488779L1086.89012269 376.6787233c12.41479582-12.41479582 12.41479582-32.27846953 1e-8-47.17622463-12.41479582-12.41479582-36.00290814-12.41479582-47.17622467-1e-8L756.65654877 611.31836791 474.84067951 328.26101935c-12.41479582-12.41479582-32.27846953-12.41479582-47.17622533 0-12.41479582 12.41479582-12.41479582 36.00290814 0 47.17622464l305.40398228 305.4039816c3.7244386 4.9659186 16.1392351 9.93183652 23.5881123 9.9318372z" fill="#409FFF" p-id="37555"></path><path d="M756.65654877 376.67872331c7.44887791 0 19.86367371-3.7244386 23.58811234-7.44887722L1086.8901227 62.5843845c12.41479582-12.41479582 12.41479582-32.27846953 0-47.17622465-12.41479582-12.41479582-32.27846953-12.41479582-48.41770465 0L756.65654876 300.94846773 474.84067951 19.13259845c-12.41479582-12.41479582-32.27846953-12.41479582-47.17622533 0-12.41479582 12.41479582-12.41479582 36.00290814 0 47.17622466l305.40398228 305.40398227c3.7244386 1.24147931 16.1392351 4.9659186 23.58811231 4.96591793z" fill="#409FFF" p-id="37556"></path></svg>