<?xml version="1.0" standalone="no"?><!DOCTYPE svg PUBLIC "-//W3C//DTD SVG 1.1//EN" "http://www.w3.org/Graphics/SVG/1.1/DTD/svg11.dtd"><svg class="icon" width="200px" height="200.00px" viewBox="0 0 1024 1024" version="1.1" xmlns="http://www.w3.org/2000/svg"><path fill="#000000" d="M750.10058 417.14949c-0.020078-16.143059-12.267922-29.073569-27.025568-29.073568H262.817129c-14.777725 0-27.025569 12.950588-27.025568 29.113725 0 16.183216 12.247843 29.113725 27.025568 29.113726h460.257883c14.516706 0 26.804706-12.950588 27.025568-29.153883z m0 0v-0.060235 0.060235zM262.29509 537.017725c-14.757647 0-27.025569 12.93051-27.025568 29.113726 0 16.163137 12.247843 29.113725 27.025568 29.113725h181.649569c14.657255 0 26.925176-12.970667 27.025568-29.113725 0-16.183216-12.247843-29.113725-27.025568-29.113726H262.29509zM723.075012 227.026824H262.817129c-14.777725 0-27.025569 12.950588-27.025568 29.113725 0 16.183216 12.247843 29.113725 27.025568 29.113726h460.257883c14.657255 0 26.945255-12.950588 27.025568-29.113726 0-16.163137-12.247843-29.113725-27.025568-29.113725zM516.227012 942.019765H142.025286l-2.931451-2.931451c0.321255 0.321255 0.321255 0.321255 1.044079 0.903529 0.522039 0.401569 0.522039 0.401569 1.505882 0.923608 9.456941 1.485804 9.456941 1.485804 14.456471-8.934902h-20.078432V71.41898l2.95153-2.951529c-0.321255 0.321255-0.321255 0.321255-0.923608 1.044078-0.38149 0.522039-0.38149 0.522039-0.923608 1.505883-1.485804 9.557333-1.485804 9.557333 8.914824 14.476549v-20.078432h720.37396l2.931451 2.931451c-0.321255-0.321255-0.321255-0.321255-1.044078-0.903529-0.522039-0.38149-0.522039-0.38149-1.505882-0.923608-9.456941-1.485804-9.456941-1.485804-14.456471 8.934902h20.078431V523.846275c0 15.319843 12.448627 27.708235 27.868863 27.708235 15.460392 0 27.868863-12.388392 27.868863-27.708235V75.454745A65.656471 65.656471 0 0 0 862.399247 10.039216H146.040973A65.656471 65.656471 0 0 0 80.28411 75.454745v856.525804a65.656471 65.656471 0 0 0 65.756863 65.415529h370.186039c15.440314 0 27.848784-12.368314 27.848784-27.688156s-12.408471-27.688157-27.848784-27.688157zM937.733522 611.348078a39.092706 39.092706 0 0 0-54.071216 8.473098L680.930384 896.823216 567.587639 800.326275c-16.384-13.773804-40.879686-11.886431-54.593255 4.296784-13.834039 16.163137-11.926588 40.558431 4.316863 54.312157l145.086745 123.783529c6.866824 5.943216 15.861961 9.236078 25.138196 9.236079 1.525961 0 2.911373-0.140549 4.577883-0.401569a38.289569 38.289569 0 0 0 26.905098-15.520628l-0.501961-0.401568 227.468549-310.713726 0.501961 0.361412a38.831686 38.831686 0 0 0-8.754196-53.930667z" /></svg>