<?xml version="1.0" standalone="no"?><!DOCTYPE svg PUBLIC "-//W3C//DTD SVG 1.1//EN" "http://www.w3.org/Graphics/SVG/1.1/DTD/svg11.dtd"><svg class="icon" width="200px" height="200.00px" viewBox="0 0 1024 1024" version="1.1" xmlns="http://www.w3.org/2000/svg"><path d="M885.12 88.917333H116.138667A116.565333 116.565333 0 0 0 0 205.056v579.754667c0 63.573333 52.053333 116.138667 116.138667 116.138666h769.450666c63.573333 0 116.138667-52.053333 116.138667-116.138666V205.056c-0.469333-63.573333-52.565333-116.138667-116.608-116.138667z m-363.477333 174.208h116.138666V379.306667h-116.138666V263.125333z m0 173.738667h116.138666v116.138667h-116.138666V436.906667zM347.946667 263.125333h116.138666V379.306667H347.946667V263.125333z m0 173.738667h116.138666v116.138667H347.946667V436.906667zM289.877333 552.96H173.653333V436.906667h116.181334v116.138666z m0-174.208H173.653333v-115.626667h116.181334v115.626667z m440.533334 406.016H266.837333V668.586667h463.573334v116.181333z m81.066666-231.808h-115.626666V436.906667h116.138666v116.138666h-0.469333z m0-174.208h-115.626666v-115.626667h116.138666v115.626667h-0.469333z"  /></svg>