<?xml version="1.0" standalone="no"?><!DOCTYPE svg PUBLIC "-//W3C//DTD SVG 1.1//EN" "http://www.w3.org/Graphics/SVG/1.1/DTD/svg11.dtd"><svg class="icon" width="200px" height="200.00px" viewBox="0 0 1024 1024" version="1.1" xmlns="http://www.w3.org/2000/svg"><path fill="#000000" d="M896 317.866667V576h64V362.666667l23.466667 17.066666c17.066667 10.666667 40.533333-2.133333 40.533333-21.333333 0-10.666667-6.4-21.333333-14.933333-27.733333L556.8 12.8c-27.733333-17.066667-61.866667-17.066667-89.6 0L14.933333 330.666667c-8.533333 6.4-14.933333 14.933333-14.933333 27.733333 0 21.333333 23.466667 34.133333 40.533333 21.333333L64 362.666667v661.333333h64V317.866667L512 49.066667l384 268.8zM192 576h192v192H192zM192 320h192v192H192zM192 832h192v192H192zM448 576h192v192h-192zM448 832h192v192h-192zM908.8 748.8L864 704 704 864l160 160 44.8-44.8-83.2-83.2H1024v-64h-198.4z" /></svg>
