<?xml version="1.0" standalone="no"?><!DOCTYPE svg PUBLIC "-//W3C//DTD SVG 1.1//EN" "http://www.w3.org/Graphics/SVG/1.1/DTD/svg11.dtd"><svg class="icon" width="200px" height="200.00px" viewBox="0 0 1024 1024" version="1.1" xmlns="http://www.w3.org/2000/svg"><path fill="#000000" d="M887.5008 0H136.5504A136.5504 136.5504 0 0 0 0 136.5504v750.9504A136.4992 136.4992 0 0 0 136.5504 1024h750.9504A136.448 136.448 0 0 0 1024 887.5008V136.5504A136.4992 136.4992 0 0 0 887.5008 0z m68.1984 887.5008c0 37.6832-30.5152 68.1984-68.1984 68.1984H136.5504a68.1984 68.1984 0 0 1-68.2496-68.1984V136.5504c0-37.6832 30.5664-68.2496 68.2496-68.2496h750.9504c37.6832 0 68.1984 30.5664 68.1984 68.2496v750.9504zM419.5328 789.5552a43.8272 43.8272 0 0 1-61.7984 0l-123.136-123.1872a43.4176 43.4176 0 0 1 0-61.8496l143.9744-143.5136-40.9088-41.0624-144.0256 143.0528a102.5024 102.5024 0 0 0 0 144.128l123.136 123.2384c39.6288 39.424 104.192 39.424 143.7184 0l143.4624-143.7184-40.8576-40.8576-143.5648 143.7696z m184.8832-555.008a43.6736 43.6736 0 0 1 61.9008 0l122.9824 123.136a43.008 43.008 0 0 1 0 61.8496l-143.872 143.5136 40.8064 40.9088 144.0768-142.9504a101.888 101.888 0 0 0 0-143.6672L707.072 193.6896a102.4 102.4 0 0 0-144.0256 0L419.5328 337.3568l40.9088 40.7552 143.9744-143.5648z m112.9984 442.0096L347.4944 306.5856a29.0816 29.0816 0 0 0-40.9088 0 29.184 29.184 0 0 0 0 40.9088l370.0224 369.92a28.9792 28.9792 0 0 0 40.8064 0 29.184 29.184 0 0 0 0-40.8576z m0 0" /></svg>
