<?xml version="1.0" standalone="no"?><!DOCTYPE svg PUBLIC "-//W3C//DTD SVG 1.1//EN" "http://www.w3.org/Graphics/SVG/1.1/DTD/svg11.dtd"><svg class="icon" width="200px" height="200.00px" viewBox="0 0 1024 1024" version="1.1" xmlns="http://www.w3.org/2000/svg"><path fill="#000000" d="M386.730667 720.213333a86.357333 86.357333 0 0 1-121.173334 5.802667l-57.685333-57.685333A86.357333 86.357333 0 0 1 213.674667 546.133333l158.72-158.72a86.357333 86.357333 0 0 1 121.173333-5.802666l57.685333 57.685333a86.016 86.016 0 0 1-5.12 121.173333l29.013334 29.013334 31.061333-31.061334a86.357333 86.357333 0 0 0 5.802667-121.173333l-115.370667-115.370667A86.357333 86.357333 0 0 0 375.466667 327.68l-222.208 222.208a86.357333 86.357333 0 0 0-5.802667 121.173333L262.826667 785.066667a86.357333 86.357333 0 0 0 121.173333-5.802667l72.021333-72.021333-29.013333-29.013334zM761.173333 238.933333a86.357333 86.357333 0 0 0-121.173333 5.802667l-72.021333 70.314667 29.013333 29.013333 40.277333-40.277333a86.357333 86.357333 0 0 1 121.173334-5.802667l57.685333 57.685333a86.357333 86.357333 0 0 1-5.802667 122.197334l-158.72 158.72a86.357333 86.357333 0 0 1-121.173333 5.802666l-57.685333-58.709333a86.016 86.016 0 0 1 5.12-120.149333l-29.013334-29.013334-31.061333 31.061334a86.357333 86.357333 0 0 0-5.802667 121.173333l115.370667 115.370667A86.357333 86.357333 0 0 0 648.533333 696.32l222.208-222.208a86.357333 86.357333 0 0 0 5.802667-121.173333zM887.466667 0H136.533333a136.533333 136.533333 0 0 0-136.533333 136.533333v750.933334a136.533333 136.533333 0 0 0 136.533333 136.533333h750.933334a136.533333 136.533333 0 0 0 136.533333-136.533333V136.533333a136.533333 136.533333 0 0 0-136.533333-136.533333z m68.266666 887.466667a68.266667 68.266667 0 0 1-68.266666 68.266666H136.533333a68.266667 68.266667 0 0 1-68.266666-68.266666V136.533333a68.266667 68.266667 0 0 1 68.266666-68.266666h750.933334a68.266667 68.266667 0 0 1 68.266666 68.266666z" /></svg>
