<?xml version="1.0" standalone="no"?><!DOCTYPE svg PUBLIC "-//W3C//DTD SVG 1.1//EN" "http://www.w3.org/Graphics/SVG/1.1/DTD/svg11.dtd"><svg t="1639964896333" class="icon" viewBox="0 0 1024 1024" version="1.1" xmlns="http://www.w3.org/2000/svg" p-id="1577" xmlns:xlink="http://www.w3.org/1999/xlink" width="200" height="200"><defs><style type="text/css"></style></defs><path d="M688.204 600.77H456.207c-34.497 0-36.553 6.853-36.553 40.208v231.884c0 14.507-2.17 66.024 2.398 75.29s12.851 12.665 26.159 12.665c12.85-0.1 25.93-0.1 38.837-0.1 15.535-91.154 142.215-91.154 157.75 0h76.533c35.41 0.1 35.867-8.467 35.867-42.164V687.812c0-94.467 10.167-87.042-68.994-87.042z m311.158 201.97c-9.024-21.704-37.238-55.972-52.659-76.548-3.77-5.026-7.767-10.837-11.308-14.963-8.11-9.367-13.822-19.762-32.441-20.447l-103.948 0.357c-16.335 2.27-19.419 14.735-19.419 32.098v208.01c0 16.434 5.369 29.114 22.389 29.114 17.82-83.958 114.685-87.614 148.382-27.53 5.94 10.524 5.37 17.363 9.71 27.53 51.174 5.94 44.549-17.135 44.549-58.942 0-25.816 3.427-78.132-5.255-98.68z m-152.266 22.845v-89.683c14.621-0.914 37.924-1.014 52.43-0.229 10.967 0.572 18.163 14.964 26.273 26.273 9.481 13.25 40.323 51.76 40.78 63.74-32.784 0.356-88.07 0.913-119.483-0.1z" fill="" p-id="1578"></path><path d="M554.329 921.409c-24.56 6.282-46.605 30.284-38.838 62.483 5.826 24.273 30.5 45.82 61.912 38.737 24.273-5.383 46.377-30.856 39.066-62.14-5.711-24.116-30.727-46.962-62.14-39.08z m270.036-409.723h178.481v-267.98c0-9.61-18.562-14.735-26.158-18.176l-46.377-21.932c-6.51-2.856-9.71-5.255-16.22-8.11-11.994-5.355-19.762-9.253-31.756-14.507C825.564 155.736 753.03 117.47 696.6 93.253L524.572 11.865C493.96-2.97 500.927-3.098 477.453 7.425L323.587 85.143c-10.394 5.254-20.332 9.381-31.298 15.092L47.04 223.36c-6.626 3.441-28.329 9.381-28.329 18.048v781.908h178.482V384.193h627.113z m52.487 408.695c-27.529 2.755-50.26 25.016-47.633 55.857a51.788 51.788 0 1 0 103.148-9.48c-2.455-26.259-26.215-49.233-55.515-46.377z" fill="" p-id="1579"></path><path d="M250.024 616.762h109.888v92.982H250.024z m0 126.793h109.888v95.038H250.024z" fill="" p-id="1580"></path></svg>