<?xml version="1.0" standalone="no"?><!DOCTYPE svg PUBLIC "-//W3C//DTD SVG 1.1//EN" "http://www.w3.org/Graphics/SVG/1.1/DTD/svg11.dtd"><svg t="1627462847352" class="icon" viewBox="0 0 1024 1024" version="1.1" xmlns="http://www.w3.org/2000/svg" p-id="35799" xmlns:xlink="http://www.w3.org/1999/xlink" width="200" height="200"><defs><style type="text/css">@font-face { font-family: "feedback-iconfont"; src: url("//at.alicdn.com/t/font_1031158_1uhr8ri0pk5.eot?#iefix") format("embedded-opentype"), url("//at.alicdn.com/t/font_1031158_1uhr8ri0pk5.woff2") format("woff2"), url("//at.alicdn.com/t/font_1031158_1uhr8ri0pk5.woff") format("woff"), url("//at.alicdn.com/t/font_1031158_1uhr8ri0pk5.ttf") format("truetype"), url("//at.alicdn.com/t/font_1031158_1uhr8ri0pk5.svg#iconfont") format("svg"); }
</style></defs><path d="M927.001736 917.352357H327.270303c-4.860756 0-8.839472-3.978716-8.839472-8.838468 0-4.860756 3.978716-8.839472 8.839472-8.839472h599.287904c4.860756 0 8.839472 3.978716 8.839472 8.839472 0 4.859753-3.53619 8.838469-8.395943 8.838468z m-673.53686 0H115.132006c-4.859753 0-8.838469-3.978716-8.838469-8.838468 0-4.860756 3.978716-8.839472 8.838469-8.839472h138.33287c4.860756 0 8.838469 3.978716 8.838468 8.839472 0 4.859753-3.977712 8.838469-8.838468 8.838468z m499.848109-63.19786H614.980115c-4.859753 0-8.838469-3.978716-8.838469-8.839472 0-4.86477 3.978716-8.838469 8.838469-8.838468h138.33287c4.859753 0 8.838469 3.973698 8.838469 8.838468 0 4.860756-3.978716 8.839472-8.838469 8.839472z m-183.410264 0h-40.216637c-4.863767 0-8.838469-3.978716-8.838469-8.839472 0-4.86477 3.974702-8.838469 8.838469-8.838468h40.216637c4.860756 0 8.839472 3.973698 8.839472 8.838468 0 4.860756-3.978716 8.839472-8.839472 8.839472z m-92.368418 0H212.362184c-4.860756 0-8.839472-3.978716-8.839472-8.839472 0-4.86477 3.978716-8.838469 8.839472-8.838468h265.172119c4.859753 0 8.838469 3.973698 8.838468 8.838468 0 4.860756-3.978716 8.839472-8.838468 8.839472z m533.879424-63.641388h-56.570012c-4.860756 0-8.839472-3.978716-8.839472-8.839472 0-4.863767 3.978716-8.838469 8.839472-8.838469h56.570012c4.859753 0 8.838469 3.974702 8.838468 8.838469 0 4.860756-3.978716 8.839472-8.838468 8.839472z m-103.415501 0h-33.149274c-4.860756 0-8.839472-3.978716-8.839472-8.839472 0-4.863767 3.978716-8.838469 8.839472-8.838469h33.149274c4.860756 0 8.839472 3.974702 8.839472 8.838469 0 4.860756-3.978716 8.839472-8.839472 8.839472z m-87.508666 0h-792.862206c-4.863767 0-8.838469-3.978716-8.838469-8.839472 0-4.863767 3.974702-8.838469 8.838469-8.838469h792.862206c4.860756 0 8.839472 3.974702 8.839472 8.838469 0 4.860756-3.978716 8.839472-8.839472 8.839472z m0 0" fill="#C4E1FF" p-id="35800"></path><path d="M927.001736 272.54353a23.767934 23.767934 0 0 1-23.86828-23.867277 23.766931 23.766931 0 0 1 23.86828-23.863263 23.764924 23.764924 0 0 1 23.863263 23.863263c0 13.260713-11.046079 23.867277-23.863263 23.867277z m0-43.755838c-10.607567 0-19.446036 8.838469-19.446035 19.446036 0 10.606564 8.838469 19.446036 19.446035 19.446035 10.606564 0 19.446036-8.839472 19.446036-19.446035 0-10.607567-8.839472-19.446036-19.446036-19.446036z m-899.374382 291.250016a23.766931 23.766931 0 0 1-23.867277-23.867277 23.766931 23.766931 0 0 1 23.867277-23.864266 23.765927 23.765927 0 0 1 23.863263 23.864266c0 13.260713-11.049089 23.867277-23.863263 23.867277z m0-43.756841c-10.606564 0-19.446036 8.839472-19.446036 19.446035 0 10.607567 8.839472 19.446036 19.446036 19.446036s19.446036-8.838469 19.446035-19.446036c0-10.606564-8.839472-19.446036-19.446035-19.446035z m396.429598-321.298602a23.765927 23.765927 0 0 1-23.864267-23.863263 23.766931 23.766931 0 0 1 23.864267-23.867277 23.766931 23.766931 0 0 1 23.867277 23.867277 23.765927 23.765927 0 0 1-23.867277 23.863263z m0-43.309299c-10.607567 0-19.446036 8.838469-19.446036 19.446036 0 10.606564 8.838469 19.446036 19.446036 19.446036 10.606564 0 19.446036-8.839472 19.446036-19.446036 0-10.607567-8.839472-19.446036-19.446036-19.446036z m277.989303 49.05611h-36.237922c-1.329583 0-2.211624-0.886054-2.211624-2.211624 0-1.324566 0.882041-2.210621 2.211624-2.210621h35.795396c1.32858 0 2.210621 0.886054 2.210621 2.210621 0 1.32557-0.882041 2.211624-1.768095 2.211624z m0 0" fill="#3A9BFF" p-id="35801"></path><path d="M683.924785 178.849542c-1.324566 0-2.206607-0.886054-2.206606-2.210621v-36.241935c0-1.324566 0.882041-2.206607 2.206606-2.206607 1.329583 0 2.210621 0.882041 2.210621 2.206607v35.79941c0 1.324566-0.881037 2.653146-2.210621 2.653146zM133.253475 591.632514h-35.79941c-1.324566 0-2.210621-0.882041-2.210621-2.211624 0-1.324566 0.886054-2.206607 2.210621-2.206606h35.79941c1.324566 0 2.210621 0.882041 2.210621 2.206606 0 1.329583-1.32858 2.211624-2.210621 2.211624z m0 0" fill="#3A9BFF" p-id="35802"></path><path d="M115.132006 609.75298c-1.324566 0-2.210621-0.886054-2.210621-2.21062v-35.79941c0-1.324566 0.886054-2.206607 2.210621-2.206607 1.32557 0 2.210621 0.882041 2.21062 2.206607v35.79941c0 1.324566-0.885051 2.210621-2.21062 2.21062z m0 0" fill="#3A9BFF" p-id="35803"></path><path d="M875.291477 388.333689h-1.767091c-4.860756-14.142754-18.12147-24.306792-33.58879-24.306792-15.46732 0-29.166545 10.164038-33.588789 24.306792h-1.324567c-13.699225 0-24.749317 11.050093-24.749317 24.749318 0 13.699225 11.050093 24.749317 24.749317 24.749317h70.712766c13.699225 0 24.749317-11.050093 24.749318-24.749317-0.443529-13.699225-11.492618-24.749317-25.192847-24.749318z m0 0" fill="#C4E1FF" p-id="35804"></path><path d="M947.772338 435.621704h-57.452052c7.509889-4.860756 12.374659-13.256699 12.374658-22.538697 0-15.024794-11.936147-26.959938-26.959938-26.959938h-0.443529c-5.745807-14.582269-19.446036-24.306792-35.355881-24.306792s-29.610074 9.724523-35.355881 24.306792c-14.586283 0-26.517413 12.374659-26.517413 26.959938 0 15.027805 11.93113 26.959938 26.959938 26.959938h142.750098v-4.421241z m-143.192623 0c-12.374659 0-22.538697-10.164038-22.538697-22.538697 0-12.374659 10.164038-22.538697 22.538697-22.538697h2.653146l0.439515-1.324566c4.421241-13.704242 17.238425-22.542711 31.820695-22.542711 14.14175 0 26.959938 9.281998 31.819691 22.542711l0.443528 1.324566h3.535187c12.374659 0 22.538697 10.164038 22.538697 22.538697 0 12.374659-10.164038 22.538697-22.538697 22.538697h-70.711762z m154.242716 0h15.023791v4.421241H958.822431v-4.421241z m0 0" fill="#3A9BFF" p-id="35805"></path><path d="M235.786935 245.583592h-1.325569c-3.096675-8.839472-11.049089-15.028808-20.774616-15.028808-9.720509 0-18.117456 6.189336-20.770602 15.028808h-0.88204c-8.399957 0-15.471334 7.071377-15.471334 15.46732s7.071377 15.46732 15.471334 15.46732h43.752827c8.395943 0 15.46732-7.071377 15.46732-15.46732s-7.071377-15.46732-15.46732-15.46732z m0 0" fill="#C4E1FF" p-id="35806"></path><path d="M235.786935 278.728852H192.034108c-9.724523 0-17.677941-7.952414-17.677941-17.67794 0-9.281998 7.509889-17.235415 16.791886-17.677941 3.53619-9.281998 12.374659-15.024794 22.538697-15.024794 9.725526 0 18.563995 6.185322 22.542711 15.024794 9.720509 0 17.235415 7.957431 17.235415 17.677941 0 9.725526-7.957431 17.677941-17.677941 17.67794zM192.034108 247.794212c-7.071377 0-13.260713 5.742797-13.260714 13.2567s5.746811 13.260713 13.260714 13.260713h43.752827c7.070373 0 13.256699-5.746811 13.2567-13.260713s-5.742797-13.256699-13.2567-13.2567h-2.654149l-0.438512-1.328579c-2.65415-7.953418-10.168052-13.699225-19.007524-13.699225-8.838469 0-15.909845 5.303282-19.002507 13.699225l-0.443529 1.328579h-2.206606z m0 0" fill="#3A9BFF" p-id="35807"></path><path d="M199.987525 274.311625h80.437289v4.417227h-80.437289v-4.417227z m87.508666 0h9.277983v4.417227h-9.277983v-4.417227z m0 0" fill="#3A9BFF" p-id="35808"></path><path d="M151.373941 304.803739c0-19.446036-15.47033-34.913356-34.916366-34.913355s-34.913356 15.46732-34.913355 34.913355h90.157797" fill="#C4E1FF" p-id="35809"></path><path d="M171.259492 307.01436h-92.365408v-2.210621c0-20.328076 16.791886-37.123976 37.123976-37.123976 19.885551 0 35.795396 15.471334 37.123976 34.916366h17.677941v4.418231h0.439515z m-87.948181-4.418231H148.720795c-1.324566-17.238425-15.46732-30.495125-32.702735-30.495125-17.239429 0-31.381179 13.256699-32.706749 30.495125z m0 0M182.309585 302.596129h11.492618v4.417228H182.309585zM213.68675 486.888434h-0.882041c-1.324566-0.439515-1.768095-1.768095-1.324566-3.092661 15.024794-35.79941 87.062126-71.155291 90.158802-72.923387 0.881037-0.439515 2.206607 0 3.092661 0.886055 0.442526 0.882041 0 2.210621-0.886055 3.092661-0.882041 0.442526-73.805427 36.241936-87.94818 70.711762-0.882041 0.443529-1.324566 1.32557-2.210621 1.32557z m0 0" fill="#3A9BFF" p-id="35810"></path><path d="M249.48616 552.296914c-1.324566 0-26.517413-1.767092-41.542207-19.446035-8.399957-9.720509-11.935144-22.981222-10.167048-38.448543 5.303282-53.034825 71.155291-75.129993 73.808437-76.016047 1.32557-0.442526 2.20761 0.442526 2.650136 1.324566 0.442526 1.329583-0.442526 2.211624-1.324567 2.654149-0.443529 0-65.409484 22.095168-70.712765 72.037332-1.324566 14.142754 1.768095 26.073884 9.281997 34.913356 13.699225 16.353374 38.006017 18.12147 38.448543 18.121469 1.32557 0 2.210621 1.324566 2.21062 2.210621-0.442526 1.767092-1.32858 2.649132-2.653146 2.649132z m0 0M832.421694 768.856452c-14.582269-26.074887-32.26021-49.942164-52.591296-71.59882 1.324566-0.438512 2.653146-1.324566 3.977712-2.649132 1.768095-1.768095 2.650136-4.422245 2.650135-7.071377 0-2.65415-1.324566-5.303282-3.092661-7.071377l-46.845489-42.427258c-1.767092-1.768095-4.421241-2.65415-7.070373-2.654149-2.65415 0-5.304285 1.32858-7.071377 3.096675-1.329583 1.768095-2.210621 3.535187-2.65415 5.742797-23.863263-16.79289-49.94116-31.378169-76.898088-42.866774l2.206607-82.647909c0.886054-1.32557 1.329583-3.092661 0.443529-4.418231l-0.443529-0.886054 3.978716-146.285284c0-2.210621-1.324566-3.978716-3.535187-4.417228l-21.656656-5.746811c-1.768095-0.442526-3.974702 0.443529-4.860757 2.210621l-67.176575 130.375439-0.443529 0.443529c-1.324566 0.882041-1.767092 2.649132-1.767092 3.974702l-38.892071 75.576532c-0.439515 0.438512-0.439515 0.882041-0.439515 1.324566-7.070373-0.442526-14.585279-0.442526-21.656656-0.442525-98.553741 0-192.248732 35.79941-262.960495 98.554744l-1.329583-1.32557c-3.974702-3.977712-10.163035-4.417227-14.141751-0.442525L186.287297 689.747744c-1.767092 1.768095-3.092661 4.417227-3.092661 7.071377 0 2.649132 0.882041 5.303282 2.650135 7.071377 0.886054 0.882041 1.768095 1.767092 3.092662 2.206606-16.791886 19.446036-31.820694 40.220651-44.633865 62.759348-1.329583 2.210621-0.443529 4.860756 1.767091 6.185323 2.20761 1.32858 4.860756 0.442526 6.185323-1.768095 60.548728-107.393213 171.035605-178.105979 294.342677-191.362678-1.32858 0.439515-3.095672 0.882041-4.421241 1.768095-7.071377 3.092661-10.606564 7.071377-10.606564 11.488604 0.442526 8.839472 15.909845 13.260713 31.820695 13.260713h4.421241c9.277984-0.443529 17.677941-2.210621 23.863263-5.303281 7.071377-3.096675 10.607567-7.071377 10.607567-11.492619-0.443529-6.186326-7.514906-10.164038-17.235415-11.932133h3.092661c140.099962 0 269.150834 74.247952 336.32741 193.573299 0.882041 1.32858 2.210621 2.210621 3.978716 2.21062 0.882041 0 1.324566 0 2.206607-0.442525 2.210621-1.768095 3.096675-4.417227 1.768095-6.185323zM497.865389 591.632514c0 2.210621-2.653146 5.303282-7.956428 7.513903-5.746811 2.649132-13.700228 4.417227-22.538697 4.860756-17.677941 0.885051-31.378169-3.978716-31.378168-8.839472 0-2.210621 2.650136-5.303282 7.953417-7.513902 5.746811-2.650136 13.699225-4.418231 22.538697-4.860757h4.421241c15.46732-0.442526 26.959938 3.978716 26.959938 8.839472zM188.937433 700.354307c-2.206607-2.210621-2.206607-5.745807 0.442525-7.957431l23.86828-22.537693c0.882041-0.886054 2.649132-1.32557 3.974702-1.32557 1.32858 0 3.095672 0.439515 3.977712 1.768095 0.443529 0.438512 0.886054 0.882041 0.886055 1.324566-10.606564 9.281998-20.33209 19.446036-30.052599 30.052599-1.32858 0-2.210621-0.442526-3.096675-1.324566z m535.208004-55.245445c0-1.324566 0.439515-3.092661 1.325569-3.977713 0.882041-0.882041 2.210621-1.768095 3.978716-1.768095h0.438512c1.32858 0 2.65415 0.442526 3.535186 1.324566l46.849503 42.427258c1.324566 0.886054 1.768095 2.211624 1.768095 3.978716 0 1.32557-0.443529 3.092661-1.325569 3.978716-0.885051 1.324566-2.653146 1.768095-3.978716 1.768095-15.909845-16.7959-33.145261-31.820694-51.709256-45.519919-0.442526-0.443529-0.882041-1.329583-0.88204-2.211624zM557.085537 499.263092l79.108709 20.331087-0.439516 18.12147-87.065136-22.099182 8.395943-16.353375z m76.458573 10.168052l-69.387196-17.678944 45.519919-33.149274 23.867277 50.828218z m-30.938654-86.184099l30.052599 7.513902-19.445032 14.142754-10.607567-21.656656z m14.142754 30.052599l21.656656-15.909845-1.768095 58.337103-19.888561-42.427258z m8.399957-86.622611l15.024794 3.978716-1.325569 53.033821-37.566502-9.720509 23.867277-47.292028z m-30.938654 59.666687l11.050093 23.863263-37.567506 27.403467 26.517413-51.26673z m-49.498635 97.229175l91.043852 23.420737-1.32858 51.26673c-36.237922-14.142754-74.687468-22.981222-114.464589-26.073883l24.749317-48.613584z m0 0" fill="#3A9BFF" p-id="35811"></path><path d="M741.824381 705.657589c-5.304285-3.535187-11.493622-4.863767-17.239429-4.421241-5.742797 0.442526-10.606564 3.53619-13.2567 7.957431-2.65415 4.417227-3.092661 9.720509-1.324566 15.46732 1.767092 5.303282 6.185322 10.164038 11.488605 13.699225 4.860756 3.092661 9.724523 4.421241 14.585279 4.421241 6.627848 0 12.374659-2.653146 15.909845-7.956428 2.650136-4.418231 3.092661-9.721513 1.32557-15.46732-2.210621-5.303282-6.185322-10.164038-11.488604-13.700228z m6.627848 26.517413c-4.421241 7.071377-15.46732 7.953418-24.306792 2.206606-4.421241-2.649132-7.956428-7.071377-9.724523-11.488604-1.324566-4.421241-1.324566-8.395943 0.886054-11.492618 2.206607-3.092661 5.741793-5.303282 10.164038-5.742797h1.767092c3.978716 0 8.396947 1.32557 12.374659 3.974702 4.418231 2.65415 7.953418 7.071377 9.721512 11.492618 1.32858 3.978716 0.886054 7.953418-0.88204 11.050093z m-93.251463-97.672704c-9.281998-5.745807-20.331087-8.838469-30.052599-7.513902-10.168052 0.886054-18.563995 5.745807-23.424752 13.260713-4.859753 7.509889-5.303282 17.235415-1.767091 26.517412 3.535187 9.277984 10.606564 18.116452 19.888561 23.863263 8.395943 5.303282 17.235415 7.956428 26.073884 7.956428h3.978715c10.164038-0.885051 18.559981-5.745807 23.420738-13.25971 9.724523-15.910849 1.768095-38.449546-18.117456-50.824204z m14.582269 48.174069c-3.974702 6.627848-11.046079 10.606564-19.885551 11.488604-8.838469 0.886054-18.563995-1.768095-27.402463-7.071377-8.839472-5.303282-15.024794-13.256699-18.12147-21.656656-3.092661-8.395943-2.650136-16.349361 1.768095-22.981222 3.978716-6.628851 11.049089-10.606564 19.888561-11.488605h3.535187c7.957431 0 16.353374 2.649132 23.86828 7.071377 17.234412 11.488604 24.749317 31.377165 16.349361 44.637879z m-142.750097-4.86477c-8.839472-4.417227-19.446036-6.185322-30.0526-3.974702-10.607567 1.768095-20.328076 7.071377-26.960941 14.142754-6.627848 7.510892-9.720509 16.349361-7.952414 25.188832 1.767092 8.838469 7.513902 15.909845 16.352371 20.774616 6.186326 3.092661 13.256699 4.860756 20.771605 4.860756 3.092661 0 6.185322-0.443529 9.281997-0.886054 22.538697-3.974702 38.006017-21.652642 34.913356-39.331587-1.32557-8.399957-7.071377-15.909845-16.353374-20.774615z m-19.446036 55.687971c-9.721513 1.768095-19.446036 0.443529-27.399453-3.535187-7.513902-3.978716-12.817184-10.164038-14.142754-17.67794-1.32858-7.513902 1.32557-15.028808 7.071377-21.214131 5.742797-6.627848 14.582269-11.050093 24.306792-12.817184 2.650136-0.443529 5.746811-0.882041 8.395943-0.882041 6.628851 0 13.260713 1.324566 19.00351 4.417227 7.513902 3.978716 12.817184 10.164038 14.14175 17.677941 2.65415 15.46732-11.045075 30.496128-31.377165 34.031315z m-232.46537-57.012538c-7.513902 5.303282-13.260713 12.374659-16.353374 19.003511-3.53619 7.070373-3.53619 13.703239-0.442526 18.120466 2.653146 3.53619 7.070373 5.303282 12.374659 5.303282 1.324566 0 3.092661 0 4.859753-0.442526 7.514906-1.324566 15.471334-4.860756 22.982226-10.164038 7.513902-5.303282 13.25971-12.374659 16.35237-19.00351 3.53619-7.070373 3.53619-13.699225 0.443529-18.120466-6.628851-9.281998-24.306792-6.628851-40.216637 5.303281z m35.795396 10.164039c-3.092661 6.189336-8.396947 12.374659-15.024794 17.239429-7.071377 4.859753-14.142754 8.395943-20.770602 9.720509-6.189336 0.886054-10.607567 0-12.818188-3.092662-2.210621-3.092661-1.767092-7.957431 0.882041-13.260713 3.096675-6.185322 8.399957-12.374659 15.028808-17.235415 8.395943-6.185322 18.120466-9.720509 25.191843-9.720509 3.974702 0 7.071377 1.324566 8.839472 3.535187 1.324566 2.650136 1.324566 7.510892-1.32858 12.814174zM574.763477 331.763678c-4.417227 16.7959-1.768095 34.47384 7.071377 49.498634 0.886054 1.324566 2.210621 2.210621 3.978716 2.210621 0.882041 0 1.324566 0 2.210621-0.442525 2.206607-1.32557 2.650136-3.978716 1.768095-6.185323-7.514906-12.818188-9.725526-28.285508-6.189337-42.870787 3.535187-14.585279 12.817184-26.959938 26.073884-34.47384 2.210621-1.32557 2.65415-3.974702 1.768095-6.186326-1.324566-2.210621-3.974702-2.653146-6.185322-1.767092-15.46732 9.281998-26.074887 23.423748-30.496129 40.216638z m94.137517 72.923386c0.882041 0 1.324566 0 2.210621-0.443529 15.023791-8.838469 25.631358-22.981222 30.052599-39.773109 4.417227-16.796903 1.768095-34.474844-7.071377-49.499638-1.32858-2.210621-3.978716-2.653146-6.189336-1.767092-2.210621 1.324566-2.649132 3.974702-1.768095 6.185323 7.514906 12.817184 9.725526 28.284504 6.189336 42.869783-3.535187 14.586283-12.817184 26.960942-26.077897 34.47083-2.206607 1.32858-2.650136 3.978716-1.768095 6.189337 1.329583 0.882041 3.096675 1.768095 4.422244 1.768095z m-118.444309-0.443529c0.882041 0 1.32557 0 2.211624-0.442526 2.206607-1.324566 2.649132-3.974702 1.767092-6.185322-27.402464-45.963448-11.935144-106.068647 34.028305-133.028585 2.210621-1.32557 2.653146-3.978716 1.767091-6.186326-1.324566-2.210621-3.974702-2.653146-6.185322-1.767092-50.384689 29.610074-67.176575 95.018554-37.123976 145.39923 0.442526 1.32858 2.210621 2.210621 3.535186 2.210621z m137.004291 27.403467c-2.206607 1.324566-2.650136 3.974702-1.768096 6.185322 0.886054 1.324566 2.210621 2.210621 3.978716 2.210621 0.886054 0 1.324566 0 2.210621-0.442526 24.306792-14.585279 41.541204-37.567505 48.61258-64.965954 7.071377-27.403467 3.096675-56.127486-11.488604-80.438293-1.324566-2.206607-3.978716-2.649132-6.189336-1.767091-2.206607 1.32858-2.649132 3.977712-1.768095 6.189336 13.260713 22.538697 16.796903 48.61258 10.607567 73.804423-6.185322 24.749317-21.652642 45.963448-44.195353 59.224162z m0 0M615.866169 348.117052c0 7.894213 4.209511 15.192372 11.046079 19.139981a22.099182 22.099182 0 0 0 33.149274-19.139981 22.091154 22.091154 0 0 0-11.050092-19.139981 22.080116 22.080116 0 0 0-22.099182 0 22.096171 22.096171 0 0 0-11.046079 19.139981z m0 0" fill="#3A9BFF" p-id="35812"></path><path d="M637.962341 372.42284c-2.20761 0-3.974702-0.442526-6.185323-0.88204-6.189336-1.767092-11.493622-5.745807-15.028808-11.049089-3.092661-5.746811-4.417227-11.932133-2.650136-18.563995 1.768095-6.185322 5.746811-11.488604 11.050093-15.024795 5.742797-3.092661 11.932133-4.421241 18.559981-2.653146 12.818188 3.535187 20.770602 16.7959 17.677941 29.613084-1.767092 6.185322-5.745807 11.489608-11.04909 15.024795-3.974702 2.210621-7.953418 3.535187-12.374658 3.535186z m0-44.195353c-3.53619 0-7.071377 0.886054-10.164038 2.65415-4.418231 2.650136-7.953418 7.071377-9.281998 12.374659-1.32557 5.303282-0.439515 10.606564 2.210621 15.024794 2.653146 4.421241 7.071377 7.956428 12.374658 9.281998 10.606564 2.649132 21.656656-3.53619 24.306792-14.142754 2.653146-10.606564-3.53619-21.656656-14.142754-24.306792-2.206607-0.886054-3.53619-0.886054-5.303281-0.886055z m0 0" fill="#C4E1FF" p-id="35813"></path><path d="M459.412833 372.866369c0-0.443529 0-0.443529 0 0v-1.768095h-0.438512s-0.443529 0-0.443529-0.442525h-0.886054l-189.156071-27.841979c-0.881037 0-2.206607 0.442526-2.206607 1.324566-0.442526 0.886054 0 2.210621 0.882041 2.653146l38.01003 26.956928-0.442525 37.566502c0 0.443529 0 1.32557 0.442525 1.768095 0.438512 0.442526 0.882041 0.442526 1.768095 0.442525h9.72051l19.446035-5.303281 27.841979 23.863263c0.443529 0.443529 0.886054 0.443529 1.32858 0.443529 0.439515 0 0.882041 0 1.325569-0.443529l91.925893-57.894578c0.443529-0.882041 0.443529-0.882041 0.882041-1.324567z m-32.259206-3.092661H307.824267l-30.93464-22.100185 150.264 22.100185z m-111.372932 38.448543h-7.071377l0.439515-34.473841h118.443306l-106.068647 15.909846c-0.882041 0-1.768095 0.886054-1.768095 1.768095-0.438512 0.886054 0 1.768095 0.886054 2.21062l11.488605 10.164038-16.349361 4.421242z m105.183596-28.728034l-83.530954 22.982226-10.163034-8.839472 93.693988-14.142754z m-55.245446 47.288015l-24.306792-21.213128 102.53346-27.841978-78.226668 49.055106z m0 0" fill="#3A9BFF" p-id="35814"></path></svg>