<?xml version="1.0" standalone="no"?><!DOCTYPE svg PUBLIC "-//W3C//DTD SVG 1.1//EN" "http://www.w3.org/Graphics/SVG/1.1/DTD/svg11.dtd"><svg class="icon" width="200px" height="200.00px" viewBox="0 0 1024 1024" version="1.1" xmlns="http://www.w3.org/2000/svg"><path  d="M512 16.83911111C238.20515555 16.83911111 16.83911111 238.20515555 16.83911111 512S238.20515555 1007.16088889 512 1007.16088889 1007.16088889 785.79484445 1007.16088889 512 785.79484445 16.83911111 512 16.83911111m7.76723001 846.62803001c-182.52989667 0-330.10725888-147.57736334-330.10726002-330.10726002s147.57736334-330.10725888 330.10726002-330.10725888v-71.84687445l172.82085888 114.5666378-172.82085888 116.50844444v-71.84687446c-135.9265189 0-244.66773333 108.74121443-244.66773334 244.66773334s108.74121443 244.66773333 244.66773334 244.66773333S764.43496334 667.34459221 764.43496334 533.3598811c0-23.30168889 19.41807445-42.71976334 42.71976221-42.7197622 23.30168889 0 42.71976334 19.41807445 42.71976334 42.7197622 1.94180779 182.52989667-147.57736334 330.10725888-330.10725888 330.10726002" /></svg>