<?xml version="1.0" standalone="no"?><!DOCTYPE svg PUBLIC "-//W3C//DTD SVG 1.1//EN" "http://www.w3.org/Graphics/SVG/1.1/DTD/svg11.dtd"><svg class="icon" width="200px" height="200.00px" viewBox="0 0 1024 1024" version="1.1" xmlns="http://www.w3.org/2000/svg"><path d="M349.53 112h324.93v144.19H349.53z"  /><path d="M897.94 297.94L738.47 138.47v117.72a64.08 64.08 0 0 1-64 64H349.53a64.08 64.08 0 0 1-64-64V112H160a48 48 0 0 0-48 48v704a48 48 0 0 0 48 48h125.53V701a64.08 64.08 0 0 1 64-64h324.94a64.08 64.08 0 0 1 64 64v211H864a48 48 0 0 0 48-48V331.88a48 48 0 0 0-14.06-33.94z"  /><path  d="M349.53 700.99h324.93V912H349.53z"  /></svg>