<?xml version="1.0" standalone="no"?><!DOCTYPE svg PUBLIC "-//W3C//DTD SVG 1.1//EN" "http://www.w3.org/Graphics/SVG/1.1/DTD/svg11.dtd"><svg t="1627627787055" class="icon" viewBox="0 0 1536 1024" version="1.1" xmlns="http://www.w3.org/2000/svg" p-id="13154" xmlns:xlink="http://www.w3.org/1999/xlink" width="300" height="200"><defs><style type="text/css">@font-face { font-family: "feedback-iconfont"; src: url("//at.alicdn.com/t/font_1031158_1uhr8ri0pk5.eot?#iefix") format("embedded-opentype"), url("//at.alicdn.com/t/font_1031158_1uhr8ri0pk5.woff2") format("woff2"), url("//at.alicdn.com/t/font_1031158_1uhr8ri0pk5.woff") format("woff"), url("//at.alicdn.com/t/font_1031158_1uhr8ri0pk5.ttf") format("truetype"), url("//at.alicdn.com/t/font_1031158_1uhr8ri0pk5.svg#iconfont") format("svg"); }
</style></defs><path d="M772.266667 512m-426.666667 0a426.666667 426.666667 0 1 0 853.333333 0 426.666667 426.666667 0 1 0-853.333333 0Z" fill="#FAFAFA" p-id="13155"></path><path d="M346.077867 491.707733a144.298667 144.298667 0 0 1 73.642666 71.68 170.513067 170.513067 0 0 1 47.650134 0.017067c52.642133 7.3984 96.136533 38.0416 121.045333 79.7184 28.7744-6.587733 56.832-18.875733 79.6416-37.393067 43.733333-35.515733 76.731733-72.3968 104.285867-98.798933 6.126933-5.870933 12.501333-4.846933 15.1296-2.269867 2.141867 2.107733 2.7904 8.2944-1.92 13.448534-23.842133 26.154667-57.378133 73.693867-81.143467 109.090133-17.851733 26.589867-29.508267 55.995733-34.346667 99.908267l3.072 0.520533c72.5248 13.073067 123.3408 78.677333 118.1184 151.441067a134.050133 134.050133 0 0 1 82.551467 32.938666c124.433067-25.070933 228.5056-111.300267 272.4864-232.1408a8.533333 8.533333 0 1 1 16.042667 5.8368c-50.722133 139.349333-177.6896 234.7008-325.265067 249.0112a8.4992 8.4992 0 0 1-3.584-0.418133A429.226667 429.226667 0 0 1 772.266667 938.666667c-235.639467 0-426.666667-191.0272-426.666667-426.666667 0-6.801067 0.162133-13.568 0.477867-20.292267zM849.066667 785.066667a21.333333 21.333333 0 1 1 0 42.666666 21.333333 21.333333 0 0 1 0-42.666666z m-273.066667-341.333334a38.4 38.4 0 1 1 0 76.8 38.4 38.4 0 0 1 0-76.8z m0 17.066667a21.333333 21.333333 0 1 0 0 42.666667 21.333333 21.333333 0 0 0 0-42.666667z m384-311.287467c62.830933-62.8224 151.005867-84.923733 231.842133-66.3552 5.486933 1.28 9.770667 5.563733 11.050667 11.050667 18.568533 80.836267-3.524267 169.002667-66.363733 231.850667a247.304533 247.304533 0 0 1-28.4928 24.430933 15.018667 15.018667 0 0 0-5.6832 8.533333c-8.132267 32.8192-25.275733 64.443733-51.524267 90.683734a198.587733 198.587733 0 0 1-39.168 30.446933c-12.117333 7.185067-26.410667-5.12-21.5296-18.3296 7.7056-20.855467 11.4944-43.383467 11.502933-66.602667-1.962667 0.324267-3.925333 0.7936-5.905066 1.0752a998.6048 998.6048 0 0 1-55.005867-50.961066 1001.3184 1001.3184 0 0 1-50.961067-55.0144c0.273067-1.979733 0.7424-3.933867 1.066667-5.9136-23.2192 0.017067-45.7472 3.797333-66.594133 11.502933-13.218133 4.881067-25.514667-9.412267-18.346667-21.5296a198.536533 198.536533 0 0 1 30.464-39.159467c26.248533-26.248533 57.856-43.400533 90.683733-51.524266 3.438933-0.853333 6.442667-2.833067 8.533334-5.691734a247.304533 247.304533 0 0 1 24.439466-28.4928z m-300.910933-43.886933a8.533333 8.533333 0 0 1-5.9648 10.496c-87.4496 24.0896-162.986667 78.711467-212.539734 152.866133a8.533333 8.533333 0 1 1-14.190933-9.480533c51.822933-77.559467 130.7904-134.656 222.208-159.837867a8.533333 8.533333 0 0 1 10.487467 5.956267z" fill="#D9D9D9" p-id="13156"></path><path d="M358.4 605.866667c44.3136 0 81.450667 30.702933 91.306667 72.004266a177.7152 177.7152 0 0 1 104.132266 10.897067c72.4736 30.72 114.005333 103.296 107.229867 176.162133a101.230933 101.230933 0 0 1 46.421333 7.850667 101.111467 101.111467 0 0 1 58.026667 65.826133c-200.388267-3.0976-367.249067-144.349867-409.5488-332.714666L358.4 605.866667z" fill="#F0F0F0" p-id="13157"></path><path d="M1066.146133 172.202667a47.701333 47.701333 0 1 1 0 95.402666 47.701333 47.701333 0 0 1 0-95.402666z" fill="#FFFFFF" p-id="13158"></path><path d="M901.2992 372.872533c2.474667 1.408 4.736 3.131733 6.741333 5.137067a30.532267 30.532267 0 0 1-7.466666 48.6656l-58.282667 30.4128a12.177067 12.177067 0 0 1-14.242133-2.184533 11.7248 11.7248 0 0 1-1.902934-14.088534l31.906134-56.064a31.7184 31.7184 0 0 1 43.246933-11.8784z m292.4544-298.026666a8.533333 8.533333 0 1 1-3.822933 16.631466c-80.247467-18.432-164.736 4.9152-223.889067 64.068267a238.788267 238.788267 0 0 0-23.586133 27.511467c-3.2768 4.462933-7.9872 7.594667-13.371734 8.925866-32.2816 7.9872-62.242133 24.814933-86.7072 49.28a189.986133 189.986133 0 0 0-29.141333 37.461334c-3.029333 5.12 2.269867 11.3152 8.0384 9.181866 21.614933-7.9872 45.1072-12.014933 69.546667-12.032a8.533333 8.533333 0 0 1 8.430933 9.9072l-0.366933 2.0224 5.486933 6.314667a992.7936 992.7936 0 0 0 33.6896 36.352l8.704 8.832a8.533333 8.533333 0 0 1-12.0832 12.0576 1009.851733 1009.851733 0 0 1-51.396267-55.4752 8.533333 8.533333 0 0 1-1.152-1.732267l-0.426666-0.9984-0.4352 0.017067c-17.425067 0.836267-34.176 3.925333-49.834667 9.2416l-4.2496 1.501867c-20.7104 7.6544-39.927467-14.813867-28.629333-33.8944a207.061333 207.061333 0 0 1 31.752533-40.832c26.666667-26.666667 59.392-45.038933 94.677333-53.777067a6.4512 6.4512 0 0 0 3.703467-2.449067 255.854933 255.854933 0 0 1 25.284267-29.482666c63.351467-63.36 153.864533-88.3712 239.778133-68.6336z m-127.607467 88.405333a56.661333 56.661333 0 1 1-44.8 91.349333 8.96 8.96 0 0 1 14.165334-10.973866 38.741333 38.741333 0 1 0 1.655466-49.425067 8.96 8.96 0 0 1-13.397333-11.904 56.533333 56.533333 0 0 1 42.376533-19.054933z" fill="#13C2C2" p-id="13159"></path></svg>