<?xml version="1.0" standalone="no"?><!DOCTYPE svg PUBLIC "-//W3C//DTD SVG 1.1//EN" "http://www.w3.org/Graphics/SVG/1.1/DTD/svg11.dtd"><svg t="1639820368271" class="icon" viewBox="0 0 1074 1024" version="1.1" xmlns="http://www.w3.org/2000/svg" p-id="22525" xmlns:xlink="http://www.w3.org/1999/xlink" width="209.765625" height="200"><defs><style type="text/css"></style></defs><path d="M1062.642699 948.93306L955.891785 841.694146a233.974813 233.974813 0 1 0-175.96986 80.916935 232.999813 232.999813 0 0 0 129.174897-38.995969l109.187913 109.675913a31.683975 31.683975 0 0 0 44.845964 0 31.683975 31.683975 0 0 0 0-44.845964z m-282.719774-76.529939A184.255852 184.255852 0 1 1 963.201779 688.148269a183.767853 183.767853 0 0 1-183.279854 184.254852zM936.8808 238.720629c0-6.823995-11.210991-10.723991-19.497985-15.110988L476.242169 2.795818a23.884981 23.884981 0 0 0-22.422982 0L78.972487 191.437667a27.296978 27.296978 0 0 0 0 48.744961L475.755169 475.620439a74.57994 74.57994 0 0 0 75.06694 0l326.589738-183.767853v115.524908a24.37198 24.37198 0 0 0 24.372981 24.37298h6.336995a24.37198 24.37198 0 0 0 24.37198-24.37298v-164.269869a4.386996 4.386996 0 0 0 0-3.411997zM633.688043 900.675099a24.85998 24.85998 0 0 0-34.608973-9.260993l-97.489922 57.518954-10.235991 5.361996V594.558344a66.292947 66.292947 0 0 0-34.120973-58.981953L36.562521 287.952589a24.37198 24.37198 0 0 0-36.558971 20.959984v421.643662a24.85998 24.85998 0 0 0 11.699991 21.447983s429.929656 261.271791 438.702648 264.196788a32.659974 32.659974 0 0 0 31.683975 0l141.847886-80.916935a23.884981 23.884981 0 0 0 9.748993-34.120973zM310.509301 538.501389a24.85998 24.85998 0 0 1-33.633973 8.286993L130.642445 458.559453a24.85998 24.85998 0 0 1-8.286993-34.120973 24.85998 24.85998 0 0 1 33.633973-8.286993l146.234883 88.227929a24.85998 24.85998 0 0 1 8.285993 34.121973z m0 0" p-id="22526" fill="#000000"></path></svg>